# xmcd
#
# Track frame offsets: 
#        150
#        15177
#        34121
#        49605
#        66250
#        80245
#        99983
#        115558
#        133558
#        151892
#        168886
#        185334
#        200332
#        219271
#        234024
#        252159
#        269260
#        290568
#        309748
#        327016
#
# Disc length: 4474 seconds
#
# Revision: 0
# Processed by: cddbd v1.5.2PL0 Copyright (c) Steve Scherf et al.
# Submitted via: ExactAudioCopy v0.99pb5
#
DISCID=01117814
DTITLE=Rychu Peja Solufka - Na Serio
DYEAR=2009
DGENRE=rap
TTITLE0=Na Powierzchni (feat. Triple Impact)
TTITLE1=Szczescie (Feat. K8 and Dj Zel)
TTITLE2=Bylem Jestem Bede (Feat. Wozik)
TTITLE3=Na Serio (Feat. Dj Decks)
TTITLE4=Hip Hop (Feat. Dj Taek)
TTITLE5=Gruba Impra z Rysiem 2 (Feat. Gandi Ganda and Kobra)
TTITLE6=Kochana Mamo (Feat. Marek Pospieszalski)
TTITLE7=Peneriada (Feat. Triple Impact)
TTITLE8=Obudz Sie (Pod Prad 2) (Feat. Chada)
TTITLE9=To Jeszcze Nie Koniec (Feat. Paluch)
TTITLE10=Smiertelna Pasja Rap (Feat. Kaczor)
TTITLE11=Poszukujac Idealu (Feat. Mrozu)
TTITLE12=To Co Robimy (Feat. Vixen)
TTITLE13=Pozwol Mi Zyc (Sa Chwile) (Feat. Glaca and Ana Herrero)
TTITLE14=Mamy Ten Flow (Feat. Brahu and Sheller)
TTITLE15=Pokonujac Granice (Feat. Dj Taek)
TTITLE16=KC
TTITLE17=Zbyt Duzo Bolu (Feat. Pih)
TTITLE18=To Jeszcze Nie Koniec (Feat. Paluch) (DNA Remix)
TTITLE19=Epilog
EXTD=
EXTT0=
EXTT1=
EXTT2=
EXTT3=
EXTT4=
EXTT5=
EXTT6=
EXTT7=
EXTT8=
EXTT9=
EXTT10=
EXTT11=
EXTT12=
EXTT13=
EXTT14=
EXTT15=
EXTT16=
EXTT17=
EXTT18=
EXTT19=
PLAYORDER=
